<svg xmlns="http://www.w3.org/2000/svg" width="400" height="200" fill="none" viewBox="0 0 400 200"><path fill="#eb5e57" d="M179.98 49.995h-29.997V19.998A20.053 20.053 0 0 0 129.986 0H69.992a20.06 20.06 0 0 0-19.998 19.998v29.997H19.999A20.06 20.06 0 0 0 0 69.992v59.994a20.06 20.06 0 0 0 19.998 19.997h29.997v29.997a20.057 20.057 0 0 0 19.997 19.998h59.994a20.06 20.06 0 0 0 19.997-19.998v-29.997h29.997a20.053 20.053 0 0 0 19.998-19.997V69.992a20.06 20.06 0 0 0-19.998-19.998"/><path fill="#d3242d" d="M149.983 49.995H49.994v99.988h99.989z"/><path fill="#1961ac" d="M129.986 49.995H69.992c-11.044 0-19.998 8.953-19.998 19.997v59.994c0 11.044 8.954 19.997 19.998 19.997h59.994c11.044 0 19.997-8.953 19.997-19.997V69.992c0-11.044-8.953-19.998-19.997-19.998M224.019 2.152h-3.171v36.3h3.171zM235.366 21.674q0-3.82 2.18-6.24a7.26 7.26 0 0 1 5.675-2.42q3.331 0 5.2 2.284 1.867 2.284 1.855 6.428v16.726h3.12V21.298q0-5.108-2.58-8.095t-6.935-2.984a10.17 10.17 0 0 0-5.055 1.264 9.45 9.45 0 0 0-3.6 3.575l-.216-4.14h-2.744v27.534h3.12zM274.622 37a6.88 6.88 0 0 0 2.687-5.648q0-3.227-1.855-5.079-1.857-1.851-6.428-3.2-3.495-1.02-4.799-2.151a3.95 3.95 0 0 1-1.316-3.172 4.19 4.19 0 0 1 1.776-3.496q1.776-1.344 4.731-1.343c2.235-.027 4.432.569 6.348 1.72v-2.852a10.1 10.1 0 0 0-2.932-1.156 15 15 0 0 0-3.468-.4q-4.087 0-6.775 2.18a6.74 6.74 0 0 0-2.688 5.459q0 2.96 1.776 4.8t5.703 2.983q3.789 1.152 5.332 2.352a3.93 3.93 0 0 1 1.532 3.256 4.52 4.52 0 0 1-1.884 3.791q-1.884 1.425-5.056 1.424a14.6 14.6 0 0 1-7.691-2.26v2.96q3.336 2 7.907 2 4.412-.017 7.1-2.168M284.897 30.92q0 3.928 1.799 6 1.8 2.072 5.296 2.072a8.3 8.3 0 0 0 4.031-.968v-2.688a8.1 8.1 0 0 1-3.599.968q-2.256 0-3.336-1.32t-1.076-4.187V13.479h7.099v-2.56h-7.099V3.228h-3.119v7.69h-4.624v2.58h4.624zM303.714 4.624a2.291 2.291 0 1 0-1.639-.672 2.22 2.22 0 0 0 1.639.672M305.274 10.919h-3.119v27.533h3.119zM314.525 30.92q0 3.928 1.8 6t5.299 2.072a8.3 8.3 0 0 0 4.032-.968v-2.688a8.1 8.1 0 0 1-3.6.968q-2.26 0-3.335-1.32t-1.08-4.187V13.479h7.099v-2.56h-7.099V3.228h-3.12v7.69h-4.623v2.58h4.623zM340.874 39.152a10.26 10.26 0 0 0 4.976-1.2 9.5 9.5 0 0 0 3.575-3.36l.216 3.872h2.744V10.919h-3.12v16.83q0 3.819-2.151 6.24a7.02 7.02 0 0 1-5.488 2.419q-3.28 0-5.107-2.312t-1.828-6.455V10.919h-3.128v17.154q0 5.107 2.5 8.091t6.811 2.988M365.828 34.984q-1.068-1.32-1.068-4.187V13.479h7.099v-2.56h-7.099V3.228h-3.12v7.69h-4.623v2.58h4.623v17.427q0 3.927 1.8 5.999t5.295 2.072a8.3 8.3 0 0 0 4.032-.968V35.34a8.1 8.1 0 0 1-3.6.968q-2.264-.008-3.339-1.324M398.504 17.198a11.75 11.75 0 0 0-4.224-5.107 11.95 11.95 0 0 0-12.662-.08c-1.885 1.25-3.384 3-4.328 5.055a17.5 17.5 0 0 0-1.6 7.691 17.7 17.7 0 0 0 1.48 7.396 12.2 12.2 0 0 0 4.224 5.135 11.03 11.03 0 0 0 6.399 1.884 11.2 11.2 0 0 0 6.235-1.776 12.13 12.13 0 0 0 4.328-5.076 17.5 17.5 0 0 0 1.6-7.69 18.1 18.1 0 0 0-1.452-7.432m-4.148 15.998a8.26 8.26 0 0 1-6.528 3.175 8.26 8.26 0 0 1-6.514-3.203q-2.448-3.2-2.448-8.47 0-5.376 2.4-8.524a8.284 8.284 0 0 1 10.157-2.294 8.3 8.3 0 0 1 2.885 2.35q2.448 3.2 2.448 8.471 0 5.272-2.4 8.495M230.742 179.272q-4.299-1.292-6.103-2.959t-1.8-4.516a5.9 5.9 0 0 1 2.26-4.867q2.26-1.804 6.023-1.8a13.66 13.66 0 0 1 7.8 2.312v-3.06q-3.28-2.1-7.852-2.096a13.7 13.7 0 0 0-5.755 1.2 10.03 10.03 0 0 0-4.115 3.364 8.5 8.5 0 0 0-1.532 5.027q0 3.871 2.071 6.183 2.073 2.313 6.908 3.872 5.11 1.599 7.127 3.336a5.7 5.7 0 0 1 2 4.571 6.4 6.4 0 0 1-2.472 5.295q-2.476 1.965-6.671 1.964-4.84 0-9.679-2.955v3.279a20 20 0 0 0 10.123 2.556c2.101.032 4.183-.4 6.099-1.264a10.16 10.16 0 0 0 4.276-3.6 9.5 9.5 0 0 0 1.559-5.403q0-3.872-2.447-6.347-2.448-2.477-7.82-4.092M256.5 171.045a14.74 14.74 0 0 0-8.227 2.4v2.936a14.04 14.04 0 0 1 7.959-2.528q3.655 0 5.431 2.124t1.776 6.535v.216a13 13 0 0 0-1.128-.056h-1.2q-7.315 0-11.159 2.42a7.77 7.77 0 0 0-3.847 6.991q0 3.6 2.368 5.755 2.367 2.156 6.299 2.14a10.95 10.95 0 0 0 5.199-1.264 8.7 8.7 0 0 0 3.632-3.468l.216 4.032h2.743V182.18q0-5.376-2.607-8.255t-7.455-2.88m6.935 18.23a7.77 7.77 0 0 1-1.048 3.924 8.55 8.55 0 0 1-2.932 3.011 7.7 7.7 0 0 1-4.195 1.2q-2.744 0-4.4-1.532a5.3 5.3 0 0 1-1.64-4.059q0-3.228 2.932-4.896t8.523-1.667q1.776 0 2.74.052zM291.404 188.579q0 3.82-2.152 6.239a7 7 0 0 1-5.487 2.42q-3.28 0-5.108-2.312t-1.828-6.455v-16.726h-3.119v17.154q0 5.108 2.499 8.091 2.5 2.984 6.8 2.984a10.26 10.26 0 0 0 4.975-1.2 9.47 9.47 0 0 0 3.576-3.36l.216 3.872h2.743v-27.541H291.4zM291.456 159.214h-3.712l-5.539 8.016h2.959zM320.873 176.317a10.05 10.05 0 0 0-3.632-3.928 9.57 9.57 0 0 0-5.028-1.344q-5.2 0-8.363 4-3.164 3.999-3.143 10.647a19.1 19.1 0 0 0 1.344 7.423 11.53 11.53 0 0 0 3.871 5.055 9.84 9.84 0 0 0 5.916 1.828 10.2 10.2 0 0 0 5.459-1.504 9.5 9.5 0 0 0 3.684-4.139l.267 4.947h2.744v-40.088h-3.119zm-2.204 17.718a7.2 7.2 0 0 1-6.132 3.199 7.469 7.469 0 0 1-6.319-3.147q-2.336-3.144-2.34-8.523-.003-5.38 2.34-8.579a7.43 7.43 0 0 1 6.319-3.2 7.06 7.06 0 0 1 4.328 1.424 9.5 9.5 0 0 1 3.012 4.115 16.6 16.6 0 0 1 1.104 6.292q0 5.219-2.312 8.419M341.846 171.045a10.86 10.86 0 0 0-6.075 1.72 11.4 11.4 0 0 0-4.116 4.975 18.4 18.4 0 0 0-1.48 7.664q0 6.723 3.364 10.646t9.115 3.924c2.902.064 5.755-.76 8.175-2.364v-2.959a13.2 13.2 0 0 1-7.907 2.475q-4.356 0-6.883-2.875t-2.8-8h19.198v-1.871q0-6.24-2.824-9.787t-7.767-3.548m-8.551 12.639q.324-4.732 2.5-7.315 2.175-2.585 5.887-2.58 3.6 0 5.648 2.608t2.151 7.287zM229.935 90.966h3.175V57.41h11.775v-2.744H218.16v2.744h11.775zM249.08 89.782a11.03 11.03 0 0 0 6.4 1.884 11.2 11.2 0 0 0 6.235-1.776c1.885-1.25 3.384-3 4.328-5.055a17.5 17.5 0 0 0 1.599-7.691 18.1 18.1 0 0 0-1.451-7.448 11.76 11.76 0 0 0-4.22-5.107 11.95 11.95 0 0 0-12.663-.08c-1.884 1.25-3.383 3-4.327 5.055a17.5 17.5 0 0 0-1.6 7.692 17.7 17.7 0 0 0 1.48 7.395 12.2 12.2 0 0 0 4.219 5.131m-.108-21.106a8.287 8.287 0 0 1 13.043.056q2.448 3.2 2.448 8.472t-2.42 8.499A8.262 8.262 0 0 1 249 85.675q-2.447-3.2-2.447-8.471 0-5.38 2.419-8.528M277.365 89.838a9.83 9.83 0 0 0 5.916 1.828 10.2 10.2 0 0 0 5.459-1.504 9.5 9.5 0 0 0 3.684-4.14l.268 4.948h2.743V50.902h-3.119v17.09a10.04 10.04 0 0 0-3.628-3.923 9.56 9.56 0 0 0-5.027-1.344q-5.2 0-8.363 4-3.165 3.999-3.148 10.647a19.1 19.1 0 0 0 1.344 7.423 11.53 11.53 0 0 0 3.871 5.043m.296-21.161a7.44 7.44 0 0 1 6.32-3.2 7.06 7.06 0 0 1 4.327 1.424 9.5 9.5 0 0 1 3.012 4.115 16.5 16.5 0 0 1 1.104 6.291q0 5.2-2.312 8.4a7.2 7.2 0 0 1-6.131 3.2 7.47 7.47 0 0 1-6.32-3.144q-2.34-3.144-2.339-8.523 0-5.38 2.339-8.563M320.201 64.589a11.95 11.95 0 0 0-12.663-.08c-1.885 1.25-3.384 3-4.328 5.055a17.5 17.5 0 0 0-1.599 7.692 17.7 17.7 0 0 0 1.48 7.395 12.2 12.2 0 0 0 4.223 5.135 11.03 11.03 0 0 0 6.399 1.884 11.23 11.23 0 0 0 6.236-1.776c1.885-1.25 3.384-3 4.327-5.055a17.5 17.5 0 0 0 1.6-7.692 18.1 18.1 0 0 0-1.452-7.447 11.75 11.75 0 0 0-4.223-5.111m.08 21.106a8.27 8.27 0 0 1-6.529 3.174 8.26 8.26 0 0 1-6.514-3.202q-2.448-3.2-2.448-8.472 0-5.375 2.4-8.523a8.3 8.3 0 0 1 6.535-3.145 8.3 8.3 0 0 1 6.508 3.201q2.447 3.2 2.447 8.472t-2.399 8.499zM345.662 89.514a6.88 6.88 0 0 0 2.687-5.647q0-3.228-1.855-5.08-1.857-1.85-6.424-3.2-3.495-1.02-4.799-2.151a3.94 3.94 0 0 1-1.32-3.172 4.193 4.193 0 0 1 1.776-3.496q1.776-1.343 4.731-1.343a12.05 12.05 0 0 1 6.348 1.72v-2.852a10.1 10.1 0 0 0-2.932-1.156 15 15 0 0 0-3.468-.4q-4.087 0-6.775 2.18a6.75 6.75 0 0 0-2.688 5.46q0 2.958 1.776 4.799 1.776 1.839 5.704 2.983 3.815 1.128 5.351 2.34a3.93 3.93 0 0 1 1.532 3.256 4.52 4.52 0 0 1-1.884 3.791q-1.884 1.428-5.055 1.424a14.6 14.6 0 0 1-7.692-2.26v2.96q3.333 2 7.904 2 4.395-.004 7.083-2.156M238.538 116.947a9.73 9.73 0 0 0-5.916-1.856 10.07 10.07 0 0 0-5.447 1.532 9.67 9.67 0 0 0-3.692 4.164l-.268-5h-2.743v37.756h3.103v-14.734a9.42 9.42 0 0 0 8.659 5.199q5.2 0 8.363-3.979 3.164-3.98 3.148-10.647a19 19 0 0 0-1.344-7.367 11.7 11.7 0 0 0-3.863-5.068m-.296 21.162a7.44 7.44 0 0 1-6.32 3.171 7.04 7.04 0 0 1-4.327-1.423 9.44 9.44 0 0 1-3.012-4.116 16.5 16.5 0 0 1-1.1-6.291q0-5.2 2.312-8.399a7.2 7.2 0 0 1 2.656-2.385 7.2 7.2 0 0 1 3.475-.815 7.46 7.46 0 0 1 6.32 3.148q2.339 3.143 2.339 8.523 0 5.379-2.343 8.587M259.943 115.091c-2.15-.04-4.265.558-6.075 1.72a11.37 11.37 0 0 0-4.116 4.976 18.4 18.4 0 0 0-1.479 7.663q0 6.723 3.363 10.647 3.364 3.923 9.115 3.923a14.2 14.2 0 0 0 8.175-2.364v-2.959a13.2 13.2 0 0 1-7.907 2.475q-4.356 0-6.883-2.875t-2.8-7.999h19.198v-1.88q0-6.24-2.824-9.787t-7.767-3.54m-8.551 12.639q.324-4.731 2.5-7.311 2.175-2.58 5.887-2.58 3.6 0 5.648 2.608t2.151 7.287zM279.785 103.261h-3.12v40.063h3.12zM303.878 139.293l.216 4.031h2.744v-17.098q0-5.376-2.608-8.255t-7.463-2.88a14.75 14.75 0 0 0-8.227 2.4v2.904a14.03 14.03 0 0 1 7.959-2.528q3.656 0 5.432 2.124 1.775 2.124 1.775 6.535v.216a12 12 0 0 0-1.128-.056h-1.199q-7.316 0-11.159 2.42a7.77 7.77 0 0 0-3.844 6.991q0 3.6 2.368 5.755 2.368 2.157 6.291 2.152a10.9 10.9 0 0 0 5.2-1.264 8.7 8.7 0 0 0 3.643-3.447m-4.143.968a7.7 7.7 0 0 1-4.196 1.199q-2.743 0-4.399-1.531a5.3 5.3 0 0 1-1.64-4.06q0-3.228 2.932-4.895 2.931-1.668 8.523-1.668 1.776 0 2.743.052v3.979a7.76 7.76 0 0 1-1.048 3.924 8.6 8.6 0 0 1-2.915 3"/></svg>